<?xml version="1.0" encoding="UTF-8" standalone="no"?>
<svg
   xmlns:dc="http://purl.org/dc/elements/1.1/"
   xmlns:cc="http://creativecommons.org/ns#"
   xmlns:rdf="http://www.w3.org/1999/02/22-rdf-syntax-ns#"
   xmlns:svg="http://www.w3.org/2000/svg"
   xmlns="http://www.w3.org/2000/svg"
   xmlns:sodipodi="http://sodipodi.sourceforge.net/DTD/sodipodi-0.dtd"
   xmlns:inkscape="http://www.inkscape.org/namespaces/inkscape"
   version="1.1"
   id="svg2"
   xml:space="preserve"
   width="253.19867"
   height="253.19867"
   viewBox="0 0 253.19867 253.19867"
   sodipodi:docname="aia.ai"><metadata
     id="metadata8"><rdf:RDF><cc:Work
         rdf:about=""><dc:format>image/svg+xml</dc:format><dc:type
           rdf:resource="http://purl.org/dc/dcmitype/StillImage" /></cc:Work></rdf:RDF></metadata><defs
     id="defs6"><clipPath
       clipPathUnits="userSpaceOnUse"
       id="clipPath20"><path
         d="M 0,189.899 H 189.899 V 0 H 0 Z"
         id="path18" /></clipPath></defs><sodipodi:namedview
     pagecolor="#ffffff"
     bordercolor="#666666"
     borderopacity="1"
     objecttolerance="10"
     gridtolerance="10"
     guidetolerance="10"
     inkscape:pageopacity="0"
     inkscape:pageshadow="2"
     inkscape:window-width="640"
     inkscape:window-height="480"
     id="namedview4" /><g
     id="g10"
     inkscape:groupmode="layer"
     inkscape:label="aia"
     transform="matrix(1.3333333,0,0,-1.3333333,0,253.19867)"><path
       d="m 90.071,66.386 h 8.857 V 22.35 h -8.857 z"
       style="fill:#d02149;fill-opacity:1;fill-rule:nonzero;stroke:none"
       id="path12" /><g
       id="g14"><g
         id="g16"
         clip-path="url(#clipPath20)"><g
           id="g22"
           transform="translate(61.984,47.8848)"><path
             d="M 0,0 C -2.348,1.24 -4.935,3.199 -5.587,4.085 L 5.961,14.389 c 0.495,0.434 1.298,0.683 2.057,0.263 0.758,-0.419 0.985,-1.222 0.886,-1.874 L 6.449,-2.502 C 5.354,-2.431 2.309,-1.309 0,0 M 12.028,21.981 C 10.511,22.812 5.993,25.059 0.749,20.488 l -28.211,-23.808 7.148,-5.675 8.751,7.771 c 4.108,-3.923 6.669,-5.147 7.759,-5.726 1.075,-0.606 3.487,-2.103 9.005,-3.448 l -1.828,-11.559 8.633,-2.96 4.845,36.595 c 1.022,6.88 -3.306,9.473 -4.823,10.303"
             style="fill:#d02149;fill-opacity:1;fill-rule:nonzero;stroke:none"
             id="path24" /></g><g
           id="g26"
           transform="translate(120.4259,45.3829)"><path
             d="m 0,0 -2.455,15.28 c -0.099,0.652 0.128,1.455 0.887,1.874 0.758,0.42 1.561,0.171 2.056,-0.263 L 12.036,6.587 C 11.384,5.701 8.797,3.742 6.449,2.502 4.141,1.193 1.096,0.071 0,0 m -10.401,14.18 4.844,-36.595 8.633,2.96 -1.828,11.559 c 5.519,1.345 7.93,2.842 9.005,3.448 1.09,0.579 3.651,1.802 7.759,5.726 l 8.752,-7.771 7.147,5.675 L 5.7,22.99 c -5.244,4.571 -9.762,2.323 -11.279,1.493 -1.517,-0.83 -5.845,-3.423 -4.822,-10.303"
             style="fill:#d02149;fill-opacity:1;fill-rule:nonzero;stroke:none"
             id="path28" /></g><g
           id="g30"
           transform="translate(80.4713,108.4141)"><path
             d="m 0,0 c -2.188,0.625 -3.833,0.75 -5,1 -1.167,0.25 0.582,1.001 1.166,1.084 0.584,0.083 5.084,1.5 6.667,2.583 1.583,1.083 6.917,4.083 7.667,5.25 0.75,1.167 3.332,0.5 3.666,0.5 0,0 0.166,-0.416 -0.5,-1.083 C 13,8.667 13,7.918 12.75,7.084 12.5,6.25 12,5.583 11.083,5 10.166,4.417 6.999,2.501 7.416,-0.166 7.833,-2.833 10.417,-6 12,-6.833 c 1.583,-0.833 7.633,-5.527 8.667,-6.5 1.416,-1.333 2.333,-3.833 3.25,-6.583 0.916,-2.75 3.833,-4.084 5.833,-4.084 2,0 5.167,0.084 6.417,-1.833 0,0 -0.333,-0.333 -1.167,-0.25 -0.833,0.083 -4,-1.001 -4.833,-1.417 -0.834,-0.416 -3.917,-0.583 -6.5,-0.333 -2.584,0.25 -4.417,0.251 -5.417,-0.833 -1,-1.084 -1.917,-1.833 -3.667,-2 -1.75,-0.167 -11.917,0.416 -14,1.583 -2.4,1.345 2.167,1.417 2.917,1.667 0.75,0.25 6,1.083 7.5,1.833 1.214,0.606 4.583,4.75 6.167,5.25 1.583,0.5 1.416,3.084 -0.084,3.917 -1.5,0.833 -2.166,-0.583 -3.333,1 -1.167,1.583 -0.084,2.25 -1.167,3.833 C 11.5,-10 7.75,-7.334 6.083,-5 4.416,-2.666 1.75,-0.5 0,0"
             style="fill:#d02149;fill-opacity:1;fill-rule:nonzero;stroke:none"
             id="path32" /></g><g
           id="g34"
           transform="translate(149.1798,100.1641)"><path
             d="m 0,0 c -1.625,1.25 -5.875,6.25 -8,6.875 -2.125,0.625 -8.25,4.75 -10.125,5.625 -1.875,0.875 -4.125,3.875 -4.5,5.375 -0.375,1.5 -3.875,6.25 -5.75,6.625 -1.875,0.375 -10.375,4.125 -11.625,4.625 -1.25,0.5 -5.625,3.25 -7.5,4.75 -1.875,1.5 -3.813,1.625 -4.438,1.375 C -52.563,35 -54.5,31.5 -55.25,30.375 -56,29.25 -63.25,24.75 -64.125,24.5 c -0.875,-0.25 -3.25,-1.75 -4.5,-2.875 -1.578,-1.419 -2,-3.375 -4,-4.625 C -74.503,15.826 -83,10 -84.5,9 -86,8 -88.375,4.625 -90.125,4.75 -91.875,4.875 -98,7.5 -99.375,9 c -1.375,1.5 -4.125,2.875 -4.125,2.875 -2.832,0 -11.84,-8.465 -15.649,-12.172 1.588,33.292 29.864,59.813 64.522,59.813 33.809,0 61.533,-25.24 64.347,-57.379 C 7.188,-2.161 1.566,-1.205 0,0 m -54.627,66.916 c -37.555,0 -67.999,-30.444 -67.999,-67.998 0,-15.641 5.293,-30.037 14.168,-41.525 l 2.182,1.659 c -5.055,6.528 -8.828,14.045 -10.961,22.197 0.013,0.877 1.899,0.492 2.987,0.251 1.125,-0.25 8.875,-2.75 11.875,-2.25 3,0.5 7.125,1.875 10.125,3.25 3,1.375 6.875,1.625 8.125,1.5 1.25,-0.125 -0.625,1.375 -1.75,1.875 -1.125,0.5 -4.125,0 -7.25,0 -3.125,0 5.75,9 6.5,9.5 0.75,0.5 1.5,1 0.5,1 -1,0 -6.875,-3.25 -8.875,-3.875 -2,-0.625 -6.25,-0.5 -8.5,-0.625 -2.25,-0.125 -7.75,-3.75 -9.375,-4.5 -1.625,-0.75 -5.313,-1.734 -5.313,-1.734 0,0 0.813,10.859 4.438,15.984 3.625,5.125 8.625,10.25 10.5,9.375 1.875,-0.875 0,-2.625 0.875,-3.5 0.875,-0.875 2.125,-0.75 2.125,-2.75 0,-2 0.5,-3 -2.125,-5.875 -2.625,-2.875 -3.5,-4.875 -1,-4 2.5,0.875 8.5,2.75 10.125,3.25 1.625,0.5 5,4.125 6.875,5.125 1.875,1 10.375,9.625 12.125,10.5 1.75,0.875 4.875,3.25 5.75,4.625 0.875,1.375 3,4.25 4.875,5.25 1.875,1 7.875,4.625 9,6.375 1.125,1.75 2.625,4.75 3.375,4.625 0.75,-0.125 3,-1.25 4,-2.375 1,-1.125 0.75,-2.375 1.375,-3.375 0.625,-1 2,-2.5 3.875,-3.125 1.875,-0.625 7,-4.625 5.875,-5.125 -0.921,-0.409 -4.375,2.125 -5.875,2.25 -1.5,0.125 -2.5,0 -2.125,-0.875 0.375,-0.875 4.75,-4.625 5.75,-6 1,-1.375 1,-4.625 1.875,-7.25 0.875,-2.625 2.875,-2.875 3.125,-7 0.25,-4.125 3.875,-8 5.375,-9.25 1.5,-1.25 3.625,-3.125 4.875,-3.25 1.25,-0.125 1,0.75 3,0 2,-0.75 1.625,0 0.75,1.625 C -20.25,-7.5 -18.5,-7 -18.5,-7 c 4.375,0.25 6.125,-4.5 6,-8.5 -0.125,-4 -2.875,-3 -4.375,-6.125 -1.5,-3.125 0,-2.25 0.75,-1.625 0.75,0.625 6,0.5 8.625,0.75 2.625,0.25 4.875,3.625 5.875,4.5 1,0.875 1.875,0.875 2.75,0.375 C 2,-18.125 1,-20.875 1.5,-21.25 c 0.5,-0.375 3.25,1.625 4.25,2.375 1,0.75 2.375,0.75 2.375,0.75 0.009,0.02 0.016,0.039 0.024,0.059 -2.115,-8.481 -5.995,-16.292 -11.253,-23.038 l 2.184,-1.662 c 8.949,11.515 14.293,25.971 14.293,41.684 0,37.554 -30.444,67.998 -68,67.998"
             style="fill:#d02149;fill-opacity:1;fill-rule:nonzero;stroke:none"
             id="path36" /></g></g></g></g></svg>
