<?xml version="1.0" encoding="UTF-8" standalone="no"?>
<svg
   xmlns:dc="http://purl.org/dc/elements/1.1/"
   xmlns:cc="http://creativecommons.org/ns#"
   xmlns:rdf="http://www.w3.org/1999/02/22-rdf-syntax-ns#"
   xmlns:svg="http://www.w3.org/2000/svg"
   xmlns="http://www.w3.org/2000/svg"
   xmlns:sodipodi="http://sodipodi.sourceforge.net/DTD/sodipodi-0.dtd"
   xmlns:inkscape="http://www.inkscape.org/namespaces/inkscape"
   version="1.1"
   id="svg2"
   xml:space="preserve"
   width="265.32001"
   height="265.32001"
   viewBox="0 0 265.32001 265.32001"
   sodipodi:docname="channel-logo.ai"><metadata
     id="metadata8"><rdf:RDF><cc:Work
         rdf:about=""><dc:format>image/svg+xml</dc:format><dc:type
           rdf:resource="http://purl.org/dc/dcmitype/StillImage" /></cc:Work></rdf:RDF></metadata><defs
     id="defs6"><linearGradient
       x1="0"
       y1="0"
       x2="1"
       y2="0"
       gradientUnits="userSpaceOnUse"
       gradientTransform="matrix(0,-130.12061,-130.12061,0,100.3698,164.76625)"
       spreadMethod="pad"
       id="linearGradient30"><stop
         style="stop-opacity:1;stop-color:#4a26ff"
         offset="0"
         id="stop24" /><stop
         style="stop-opacity:1;stop-color:#4a26ff"
         offset="0.5"
         id="stop26" /><stop
         style="stop-opacity:1;stop-color:#6e26ff"
         offset="1"
         id="stop28" /></linearGradient><clipPath
       clipPathUnits="userSpaceOnUse"
       id="clipPath40"><path
         d="M 0,198.99 H 198.99 V 0 H 0 Z"
         id="path38" /></clipPath></defs><sodipodi:namedview
     pagecolor="#ffffff"
     bordercolor="#666666"
     borderopacity="1"
     objecttolerance="10"
     gridtolerance="10"
     guidetolerance="10"
     inkscape:pageopacity="0"
     inkscape:pageshadow="2"
     inkscape:window-width="640"
     inkscape:window-height="480"
     id="namedview4" /><g
     id="g10"
     inkscape:groupmode="layer"
     inkscape:label="channel-logo"
     transform="matrix(1.3333333,0,0,-1.3333333,0,265.32)"><g
       id="g12"><g
         id="g14"><g
           id="g20"><g
             id="g22"><path
               d="m 34.654,99.05 c 0,-36.293 29.422,-65.715 65.716,-65.715 v 0 c 36.294,0 65.716,29.422 65.716,65.715 v 0 c 0,36.294 -29.422,65.716 -65.716,65.716 v 0 c -36.294,0 -65.716,-29.422 -65.716,-65.716"
               style="fill:url(#linearGradient30);stroke:none"
               id="path32" /></g></g></g></g><g
       id="g34"><g
         id="g36"
         clip-path="url(#clipPath40)"><g
           id="g42"
           transform="translate(112.0846,91.5224)"><path
             d="m 0,0 c -3.081,0 -4.369,2.226 -4.369,7.675 0,5.449 1.288,7.675 4.369,7.675 3.081,0 4.368,-2.226 4.368,-7.675 C 4.368,2.226 3.081,0 0,0 m -23.43,0 c -3.081,0 -4.368,2.226 -4.368,7.675 0,5.449 1.287,7.675 4.368,7.675 3.081,0 4.369,-2.226 4.369,-7.675 C -19.061,2.226 -20.349,0 -23.43,0 m 43.774,-15.738 c -0.766,2.299 -0.57,4.798 0.52,6.962 3.108,6.171 4.532,13.331 3.59,20.908 C 22.422,28.487 9.229,41.709 -7.131,43.704 -30.857,46.596 -50.783,26.671 -47.89,2.944 c 1.994,-16.36 15.216,-29.552 31.572,-31.585 7.576,-0.941 14.736,0.483 20.908,3.59 2.164,1.09 4.663,1.286 6.962,0.52 l 7.425,-2.475 c 2.375,-0.792 4.634,1.468 3.842,3.843 z"
             style="fill:#ffffff;fill-opacity:1;fill-rule:evenodd;stroke:none"
             id="path44" /></g></g></g></g></svg>
