<svg width="333" height="256" viewBox="0 0 333 256" fill="none" xmlns="http://www.w3.org/2000/svg">
<rect x="0.5" y="0.5" width="332" height="255" />
<g clip-path="url(#clip0)">
<path d="M282.561 78.2378L224.181 159.777L192.816 171.896L165.799 205.158V216.609H177.238L202.404 184.788L235.618 171.228L294 89.6888V78.2378H282.561Z" fill="url(#paint0_linear)"/>
<path d="M97.7138 39V89.6653H87.3161V50.2445H87.0399L73.3145 89.6675H63.5416L49.5379 50.2445H49.1915V89.6675H39.2784V39H55.7068L68.6693 77.1719H68.8775L81.7019 39H97.7138Z" fill="black"/>
<path d="M143.395 82.0995V88.9717C141.799 89.5951 139.166 90.3589 136.601 90.3589C131.055 90.3589 128.422 88.2058 128.422 83.6952V82.308H128.076C125.511 86.6803 120.451 90.4972 113.449 90.4972C105.893 90.4972 100.833 85.9164 100.833 80.225C100.833 74.9506 104.299 72.5209 110.884 70.2315C113.587 69.2592 120.521 67.5252 128.008 65.1635C127.661 61.1401 124.334 59.3338 120.451 59.3338C116.363 59.3338 112.41 61.0699 109.775 67.5252L101.596 64.1933C105.408 54.7551 112.686 51.8381 121.214 51.8381C132.375 51.8381 138.197 57.253 138.197 66.4826V78.9761C138.197 80.642 138.197 82.3761 140.554 82.3761C141.317 82.3782 142.494 82.308 143.395 82.0995ZM128.008 76.6868V71.1336C124.334 72.3826 117.54 74.6719 115.67 75.3676C112.412 76.5463 111.373 77.2421 111.373 78.8378C111.373 80.7803 113.175 82.6548 116.711 82.6548C122.461 82.6548 126.828 79.4633 128.008 76.6868Z" fill="black"/>
<path d="M172.648 52.6722V61.5551C171.747 61.3465 170.567 61.1402 169.32 61.1402C160.792 61.1402 155.524 68.2188 155.524 77.657V89.6654H145.127V52.6722H155.248V65.5827H155.386C156.982 58.5721 159.06 55.2402 163.774 53.2275C165.229 52.6041 167.239 52.2573 169.18 52.2573C170.429 52.2573 171.608 52.3956 172.648 52.6722Z" fill="black"/>
<path d="M190.878 72.523L184.433 78.0761V89.6654H174.035V39H184.433V67.7337L201.832 52.6722H214.448L198.228 66.6933L215.42 89.6654H203.358L190.878 72.523Z" fill="black"/>
<path d="M251.464 73.0081L222.211 72.9379C222.696 78.6995 225.469 82.7952 232.262 82.7952C237.324 82.7952 241.621 80.5037 243.006 75.3676L251.464 78.0059C248.344 86.7505 240.58 90.4994 231.638 90.4994C219.438 90.4994 211.952 82.9335 211.952 71.6911C211.952 59.9614 219.784 51.8403 231.916 51.8403C243.631 51.8403 251.742 59.2657 251.464 73.0081ZM222.558 66.7614H240.858C239.819 61.6955 236.561 59.3338 231.916 59.3338C227.203 59.3359 223.737 61.6253 222.558 66.7614Z" fill="black"/>
<path d="M257.218 52.6722L261.861 41.9149H266.369L266.507 52.6722H277.527V60.0997H266.507V76.757C266.507 81.408 267.892 82.725 272.121 82.725C273.923 82.725 275.795 82.4484 277.875 82.0995V89.3866C274.618 90.0122 272.329 90.359 268.032 90.359C259.09 90.359 256.109 86.8888 256.109 80.7803V60.0997H250.216V52.6722H257.218Z" fill="black"/>
<path d="M49.676 111.488V124.19H71.7888V133.144H49.676V153.203H39.2784V102.535H76.7804V111.488H49.676Z" fill="black"/>
<path d="M102.151 116.208L106.794 105.45H111.301L111.439 116.208H122.459V123.635H111.439V140.292C111.439 144.943 112.825 146.26 117.053 146.26C118.855 146.26 120.727 145.984 122.808 145.635V152.922C119.55 153.548 117.262 153.894 112.965 153.894C104.023 153.894 101.041 150.424 101.041 144.316V123.633H95.1489V116.205H102.151V116.208Z" fill="black"/>
<path d="M79.8127 116.208H90.2104V153.201H79.8127V116.208Z" fill="black"/>
<path d="M90.3485 102.535V113.988H79.6725V102.535H90.3485Z" fill="black"/>
<path d="M74.768 207.215V216.168H39V165.503H49.3976V207.215H74.768Z" fill="black"/>
<path d="M118.855 208.602V215.474C117.262 216.098 114.627 216.862 112.062 216.862C106.516 216.862 103.883 214.709 103.883 210.198V208.811H103.536C100.971 213.183 95.9118 217 88.9099 217C81.3555 217 76.2938 212.419 76.2938 206.728C76.2938 201.453 79.7596 199.024 86.345 196.734C89.048 195.762 95.9798 194.028 103.466 191.666C103.12 187.643 99.792 185.837 95.9118 185.837C91.8211 185.837 87.8708 187.573 85.2358 194.028L77.0566 190.696C80.8689 181.258 88.147 178.341 96.6725 178.341C107.833 178.341 113.656 183.756 113.656 192.985V205.479C113.656 207.145 113.656 208.879 116.012 208.879C116.775 208.881 117.954 208.811 118.855 208.602ZM103.466 203.19V197.636C99.792 198.885 93.0005 201.175 91.1284 201.87C87.8708 203.049 86.8316 203.745 86.8316 205.341C86.8316 207.283 88.6336 209.158 92.1696 209.158C97.922 209.158 102.289 205.966 103.466 203.19Z" fill="black"/>
<path d="M161.765 197.568C161.765 209.368 154.696 217.002 144.574 217.002C137.989 217.002 133.135 213.6 130.987 208.466H130.779V216.17H120.381V165.503H130.779V187.226H130.987C133.273 181.743 137.987 178.343 144.78 178.343C154.069 178.343 161.765 185.492 161.765 197.568ZM151.089 197.568C151.089 190.766 147.069 186.047 141.108 186.047C135.007 186.047 130.711 190.975 130.711 196.736V198.609C130.711 204.579 135.007 209.298 141.108 209.298C147.069 209.298 151.089 204.579 151.089 197.568Z" fill="black"/>
<path d="M165.799 205.158V210.832V214.496V216.609H177.238V205.158H165.799Z" fill="black"/>
</g>
<defs>
<linearGradient id="paint0_linear" x1="165.799" y1="147.423" x2="294" y2="147.423" gradientUnits="userSpaceOnUse">
<stop stop-color="#40B7A7"/>
<stop offset="0.2285" stop-color="#3BB5A8"/>
<stop offset="0.5059" stop-color="#2CAFA9"/>
<stop offset="0.8075" stop-color="#14A6AC"/>
<stop offset="1" stop-color="#009EAE"/>
</linearGradient>
<clipPath id="clip0">
<rect width="255" height="178" fill="white" transform="translate(39 39)"/>
</clipPath>
</defs>
</svg>
