<svg id="Layer_1" data-name="Layer 1" xmlns="http://www.w3.org/2000/svg" viewBox="0 0 300 300"><defs><style>.cls-1{fill:#33547d;}.cls-2{fill:#fff;}</style></defs><title>-icon-color</title><rect class="cls-1" width="300" height="300"/><circle class="cls-2" cx="33.94" cy="182.98" r="11.1"/><circle class="cls-2" cx="74.01" cy="183.1" r="7.85"/><circle class="cls-2" cx="107.05" cy="183.1" r="3.56"/><path class="cls-2" d="M71.9,159.72a3.35,3.35,0,0,1-3.4-3.4V141.86c0-5-2.38-8.81-7.73-8.81s-8.6,4.12-8.6,8.89v14.38a3.26,3.26,0,0,1-3.4,3.4,3.31,3.31,0,0,1-3.4-3.4V141.86c0-5-2.6-8.81-7.95-8.81S29,137.17,29,141.94v14.38a3.31,3.31,0,0,1-3.4,3.4,3.35,3.35,0,0,1-3.4-3.4V130.66a3.25,3.25,0,0,1,3.4-3.47A3.2,3.2,0,0,1,29,130.66V133a11.34,11.34,0,0,1,10.2-6.07,12,12,0,0,1,11.06,6.43,13.62,13.62,0,0,1,12.07-6.43c8.74,0,12.94,6,12.94,14.46v15a3.31,3.31,0,0,1-3.4,3.4Zm12.94-45.4a4,4,0,1,1-4,4A4,4,0,0,1,84.84,114.32Zm0,45.4a3.31,3.31,0,0,1-3.4-3.4V130.59a3.4,3.4,0,1,1,6.8,0v25.73a3.32,3.32,0,0,1-3.4,3.4Zm22.55-20.82,8.6-10.7a2.86,2.86,0,0,1,2.24-1,2.93,2.93,0,0,1,2.32,4.92l-9.47,11.27,9.61,11.35a2.82,2.82,0,0,1,.79,2,3,3,0,0,1-3,3,2.89,2.89,0,0,1-2.39-1.09l-8.67-10.77-8.67,10.77a2.91,2.91,0,0,1-2.39,1.09,3,3,0,0,1-3-3,2.83,2.83,0,0,1,.8-2l9.61-11.35-9.47-11.27a2.92,2.92,0,0,1-.79-2,2.89,2.89,0,0,1,3.11-3,2.86,2.86,0,0,1,2.24,1l8.6,10.7ZM144.47,160a13,13,0,0,1-11.13-6.22v16.05a3.4,3.4,0,0,1-6.8,0V130.59a3.15,3.15,0,0,1,3.26-3.4,3.26,3.26,0,0,1,3.32,3.47v2.46a13,13,0,0,1,11.35-6.22c8.31,0,15.11,6.94,15.11,16.56C159.58,153.43,152.78,160,144.47,160Zm-1.37-27.47c-5.86,0-9.76,5.13-9.76,10.91s3.9,10.92,9.76,10.92,9.68-4.41,9.68-10.92S149,132.54,143.1,132.54Zm52.33,23.78a3.36,3.36,0,1,1-6.72,0v-1.59A12.54,12.54,0,0,1,178.16,160c-10.12,0-16-7.37-16-16.56,0-9,6.51-16.55,16.7-16.55,10.41,0,16.55,6.8,16.55,16.55v12.87Zm-16.62-23.64c-5.79,0-9.84,4.85-9.84,10.77,0,6.22,3.4,10.77,9.84,10.77,6,0,9.83-5.13,9.83-10.77,0-6.65-4-10.77-9.83-10.77Zm37.08-5.78A14.85,14.85,0,0,1,231.07,142v14.31a3.4,3.4,0,0,1-3.39,3.4h0a3.4,3.4,0,0,1-3.4-3.39h0V141.21a8.35,8.35,0,0,0-16.7,0v15.11a3.39,3.39,0,0,1-3.38,3.4h0a3.4,3.4,0,0,1-3.4-3.39h0V142A14.79,14.79,0,0,1,215.89,126.9Zm50.52,16.63c0,1.15-.65,2.31-2.6,2.31H242.2c.36,5,3.76,8.75,9.76,8.75a11.09,11.09,0,0,0,8.38-3.55,3.34,3.34,0,0,1,2.24-1.08,2.73,2.73,0,0,1,2.82,2.82,3,3,0,0,1-.87,1.95c-2.74,3.18-7.66,5.28-12.86,5.28-10.77,0-16.48-7.52-16.48-16.56,0-9.47,6.86-16.55,16.19-16.55,9.11,0,15,7.37,15,16.63Zm-15-11.21a9,9,0,0,0-9,8h17.78c-.57-4.34-3.83-8-8.74-8Zm23,27.4a3.3,3.3,0,0,1-3.39-3.4v-42.5a3.4,3.4,0,1,1,6.79,0v42.5a3.31,3.31,0,0,1-3.4,3.4Z"/></svg>