<?xml version="1.0" encoding="UTF-8" standalone="no"?>
<svg
   xmlns:dc="http://purl.org/dc/elements/1.1/"
   xmlns:cc="http://creativecommons.org/ns#"
   xmlns:rdf="http://www.w3.org/1999/02/22-rdf-syntax-ns#"
   xmlns:svg="http://www.w3.org/2000/svg"
   xmlns="http://www.w3.org/2000/svg"
   xmlns:sodipodi="http://sodipodi.sourceforge.net/DTD/sodipodi-0.dtd"
   xmlns:inkscape="http://www.inkscape.org/namespaces/inkscape"
   version="1.1"
   id="svg2"
   xml:space="preserve"
   width="479.556"
   height="480"
   viewBox="0 0 479.556 480"
   sodipodi:docname="VPLogo_4c_rgb.ai"><metadata
     id="metadata8"><rdf:RDF><cc:Work
         rdf:about=""><dc:format>image/svg+xml</dc:format><dc:type
           rdf:resource="http://purl.org/dc/dcmitype/StillImage" /></cc:Work></rdf:RDF></metadata><defs
     id="defs6"><clipPath
       clipPathUnits="userSpaceOnUse"
       id="clipPath18"><path
         d="M 0,360 H 359.667 V 0 H 0 Z"
         id="path16" /></clipPath></defs><sodipodi:namedview
     pagecolor="#ffffff"
     bordercolor="#666666"
     borderopacity="1"
     objecttolerance="10"
     gridtolerance="10"
     guidetolerance="10"
     inkscape:pageopacity="0"
     inkscape:pageshadow="2"
     inkscape:window-width="640"
     inkscape:window-height="480"
     id="namedview4" /><g
     id="g10"
     inkscape:groupmode="layer"
     inkscape:label="VPLogo_4c_rgb"
     transform="matrix(1.3333333,0,0,-1.3333333,0,480)"><g
       id="g12"><g
         id="g14"
         clip-path="url(#clipPath18)"><g
           id="g20"
           transform="translate(126.8955,176.4424)"><path
             d="m 0,0 c -0.588,-0.189 -2.739,-1.215 -4.125,-1.472 -0.819,-0.144 -8.673,-4.037 -12.518,-6.082 -6.974,-3.678 -13.368,-8.006 -17.381,-10.842 0,-0.016 0,-0.048 0,-0.048 0,0 -0.337,-16.233 -0.351,-17.562 0.044,-4.699 1.587,-8.008 1.43,-9.838 -0.063,-0.638 -0.35,-3.02 -3.326,-2.643 -2.446,0.374 -2.265,4.123 -2.265,4.123 l 0.307,12.245 c 0,0 0.011,5.793 0.02,10.738 -5.313,-3.543 -13.167,-9.863 -17.408,-13.996 -2.446,-2.487 -9.254,-10.36 -10.593,-10.597 -0.901,-0.127 -2.008,-0.364 -2.855,0.613 -0.356,0.429 -0.855,1.586 -0.408,2.548 1.536,3.024 13.125,12.25 14.942,13.882 1.381,1.247 10.381,7.918 16.331,12.181 0.002,1.242 0.003,2.09 0.003,2.236 0,0.711 -0.432,0.282 -0.432,0.282 l -1.586,-0.908 c 0,0 -2.488,-1.195 -4.501,-0.37 -1.351,0.59 -1.783,2.446 -1.867,3.072 -0.091,0.639 -0.091,3.809 -0.091,3.809 0,0 -0.137,3.603 1.396,7.414 1.532,3.808 4.989,4.747 4.989,4.747 0,0 0.651,0.307 1.07,-0.061 0.537,-0.481 0.385,-1.201 0.273,-1.553 -0.083,-0.801 -1.148,-1.714 -1.148,-1.714 0,0 -0.91,-1.229 -1.303,-2.234 -0.393,-1.012 -1.02,-5.667 -1.055,-6.616 -0.04,-1.62 0.407,-2.206 0.407,-2.206 0,0 0.344,-0.794 1.679,-0.363 1.337,0.414 1.554,1.111 1.788,1.568 0.305,0.558 0.414,1.375 0.414,1.375 l 1.117,12.236 c 0,0 0.365,1.727 2.182,1.936 1.632,0.175 1.966,-0.85 2.006,-1.062 0.234,-1.525 -0.797,-11.676 -0.954,-13.234 -0.077,-0.752 -0.129,-3.134 -0.162,-5.391 0.039,0.026 0.084,0.057 0.122,0.082 3.97,2.628 17.742,10.465 17.742,10.465 l 5.197,3.042 c 0,0 -1.263,0.644 -1.263,1.993 0,1.352 0.349,9.092 0.349,9.092 0,0 0.119,0.679 -0.499,1.154 -0.507,0.313 -0.867,0.29 -1.208,0.095 -0.349,-0.19 -2.041,-1.675 -2.518,-2.46 -0.472,-0.776 -1.03,-3.42 -1.179,-5.153 -0.15,-1.723 0.093,-4.84 0.093,-4.84 0,0 -0.104,-0.93 -0.598,-1.528 -0.48,-0.594 -1.823,-1.089 -1.823,-1.089 0,0 -0.835,-0.503 -1.582,-0.085 -0.768,0.414 -0.648,1.403 -0.648,1.403 l 0.58,11.478 c 0,0 0.098,1.364 0.968,2.396 0.863,1.036 2.665,1.083 2.665,1.083 0,0 1.627,-0.184 2.579,0.19 0.424,0.157 0.875,0.717 0.875,0.717 0,0 1.376,1.604 2.729,2.202 0.944,0.418 1.142,0.569 2.384,0.162 0.861,-0.285 1.149,-1.221 1.219,-1.709 0.355,-5.092 -0.07,-9.948 0,-10.682 0.091,-0.951 0.398,-1.467 0.928,-1.776 0.664,-0.412 1.697,0.284 1.697,0.284 l 4.237,2.109 c 0,0 1.985,0.602 3.173,-0.751 C 3.375,2.27 1.409,0.685 0,0 m -61.982,-22.399 c 0,0 0.006,-0.722 -0.499,-1.122 -0.961,-0.758 -1.831,-1.271 -1.831,-1.271 0,0 -0.385,-0.29 -1.275,-0.033 -0.595,0.349 -0.59,1.125 -0.59,1.125 0,0 0.598,11.832 0.829,13.104 0.311,1.594 0.723,2.2 0.723,2.2 0,0 1.553,2.013 3.163,1.899 0.766,-0.118 0.923,-1.029 0.905,-1.162 0.462,-1.424 -1.425,-14.74 -1.425,-14.74 m 0.528,21.346 c -0.308,-0.091 -0.638,-0.26 -1.37,0.404 -0.731,0.635 -0.157,1.693 0.251,2.444 0.362,0.668 1.96,1.618 1.96,1.618 0,0 1.258,0.574 1.608,0.156 0.355,-0.456 0.438,-1.024 0.438,-1.024 0,0 0.216,-0.836 -0.354,-1.467 -0.82,-0.915 -2.214,-2.041 -2.533,-2.131 m -12.253,-37.422 c 0,0 -0.368,-1.969 -2.013,-1.969 -1.545,0.011 -1.884,1.3 -1.884,1.3 l -5.206,31.187 c 0,0 -0.141,1.086 -0.793,0.573 -0.368,-0.631 -3.356,-8.309 -3.356,-8.309 0,0 -0.928,-1.467 -2.404,-0.826 -1.471,0.629 -1.142,1.878 -1.142,1.878 l 6.043,17.788 c 0,0 0.837,1.67 2.479,1.399 1.634,-0.247 1.96,-2.338 1.96,-2.338 l 3.981,-23.954 c 0,0 0.096,-0.427 0.284,-0.427 0.184,0 0.257,0.659 0.257,0.659 0,0 1.84,12.938 4.154,22.126 0.542,2.113 2.653,10.062 4.766,16.051 2.789,8.109 5.901,15.212 5.901,15.212 0,0 2.078,3.954 5.515,1.888 3.212,-2.523 0.567,-5.335 0.567,-5.335 0,0 -2.859,-2.909 -4.292,-5.646 -3.046,-5.559 -6.042,-16.299 -7.865,-22.477 -0.257,-0.853 -2.932,-10.375 -5.07,-25.351 -0.431,-2.935 -1.882,-13.429 -1.882,-13.429 m 23.775,37.127 c 0,0 1.151,0.48 1.796,-0.835 0.809,-1.598 -0.464,-2.454 -0.464,-2.454 l -1.516,-1.152 c 0,0 -1.077,-1.021 -1.62,-1.894 -0.547,-0.873 -0.511,-1.149 -0.713,-2.605 -0.203,-1.453 -0.343,-6.018 -0.343,-6.018 0,0 0.311,-0.631 -0.375,-1.893 -0.747,-1.453 -2.4,-1.918 -2.4,-1.918 0,0 -0.959,-0.28 -1.416,0.221 -0.453,0.519 -0.501,1.254 -0.501,1.254 l 0.742,12.606 c 0,0 0.098,1.665 1.469,2.7 1.104,0.697 2.928,0.826 2.928,0.826 z m 19.936,-4.47 c 0,0 1.029,11.401 1.21,12.459 0.243,1.385 0.577,1.641 0.577,1.641 0,0 1.433,1.724 2.594,1.425 1.043,-0.153 0.895,-1.732 0.895,-1.732 l -0.651,-7.67 c 0,0 -0.14,-4.998 -0.365,-5.44 -0.312,-0.584 -1.162,-1.344 -2.518,-1.832 -0.339,-0.119 -0.751,-0.209 -1.161,-0.031 -0.739,0.383 -0.581,1.18 -0.581,1.18 m 4.381,23.544 c 0.765,0.41 1.223,0.585 2.3,0.219 1.113,-0.632 0.029,-2.174 0.029,-2.174 0,0 -1.216,-1.813 -2.235,-1.955 -0.812,-0.1 -1.837,0.266 -1.9,1.239 -0.016,0.924 1.129,2.301 1.806,2.671 m 49.543,3.112 c -41.955,19.45 -81.554,28.727 -124.613,42.553 -5.197,1.703 -9.053,-2.479 -8.636,-9.361 2.086,-36.356 4.202,-71.244 6.657,-104.691 0.492,-6.325 3.872,-11.149 7.538,-10.91 30.73,1.783 56.918,0.408 87.879,6.081 3.709,0.73 7.774,4.64 9.163,8.504 7.307,20.83 16.315,40.164 27.287,57.572 2.096,3.192 -0.2,7.836 -5.275,10.252"
             style="fill:#dbd9d6;fill-opacity:1;fill-rule:nonzero;stroke:none"
             id="path22" /></g><g
           id="g24"
           transform="translate(70.1538,170.4062)"><path
             d="m 0,0 -0.742,-12.605 c 0,0 0.048,-0.736 0.501,-1.255 0.456,-0.501 1.416,-0.221 1.416,-0.221 0,0 1.653,0.465 2.399,1.918 0.687,1.262 0.376,1.893 0.376,1.893 0,0 0.139,4.565 0.342,6.018 0.203,1.456 0.167,1.732 0.714,2.606 0.542,0.873 1.62,1.893 1.62,1.893 l 1.516,1.152 c 0,0 1.273,0.856 0.464,2.455 C 7.96,5.168 6.81,4.688 6.81,4.688 L 4.396,3.526 C 4.396,3.526 2.572,3.397 1.469,2.7 0.098,1.665 0,0 0,0"
             style="fill:#ac1e2d;fill-opacity:1;fill-rule:nonzero;stroke:none"
             id="path26" /></g><g
           id="g28"
           transform="translate(101.3745,190.2588)"><path
             d="m 0,0 c 1.019,0.142 2.235,1.955 2.235,1.955 0,0 1.084,1.542 -0.029,2.173 C 1.129,4.494 0.671,4.319 -0.094,3.91 -0.771,3.54 -1.916,2.163 -1.9,1.238 -1.837,0.265 -0.812,-0.1 0,0"
             style="fill:#ac1e2d;fill-opacity:1;fill-rule:nonzero;stroke:none"
             id="path30" /></g><g
           id="g32"
           transform="translate(67.9741,177.5205)"><path
             d="m 0,0 c 0.571,0.631 0.354,1.467 0.354,1.467 0,0 -0.083,0.568 -0.438,1.024 -0.35,0.418 -1.607,-0.156 -1.607,-0.156 0,0 -1.599,-0.95 -1.96,-1.618 C -4.06,-0.034 -4.633,-1.092 -3.903,-1.728 -3.17,-2.392 -2.84,-2.222 -2.532,-2.131 -2.214,-2.041 -0.819,-0.915 0,0"
             style="fill:#ac1e2d;fill-opacity:1;fill-rule:nonzero;stroke:none"
             id="path34" /></g><g
           id="g36"
           transform="translate(125.9663,181.2803)"><path
             d="m 0,0 -4.237,-2.109 c 0,0 -1.033,-0.696 -1.697,-0.284 -0.529,0.309 -0.837,0.825 -0.928,1.776 -0.07,0.734 0.356,5.59 0,10.682 -0.07,0.488 -0.358,1.424 -1.219,1.709 -1.242,0.407 -1.44,0.256 -2.383,-0.162 -1.353,-0.598 -2.73,-2.202 -2.73,-2.202 0,0 -0.451,-0.56 -0.875,-0.717 -0.952,-0.374 -2.579,-0.19 -2.579,-0.19 0,0 -1.802,-0.046 -2.665,-1.083 -0.87,-1.032 -0.968,-2.396 -0.968,-2.396 L -20.86,-6.454 c 0,0 -0.12,-0.989 0.648,-1.402 0.746,-0.418 1.581,0.085 1.581,0.085 0,0 1.343,0.494 1.823,1.088 0.494,0.598 0.598,1.528 0.598,1.528 0,0 -0.243,3.117 -0.093,4.84 0.149,1.733 0.707,4.377 1.179,5.153 0.477,0.785 2.169,2.27 2.519,2.46 0.34,0.195 0.7,0.219 1.207,-0.095 0.618,-0.474 0.5,-1.154 0.5,-1.154 0,0 -0.35,-7.739 -0.35,-9.092 0,-1.349 1.263,-1.993 1.263,-1.993 l -5.197,-3.042 c 0,0 -13.772,-7.837 -17.742,-10.465 -0.037,-0.025 -0.082,-0.056 -0.122,-0.082 0.033,2.257 0.085,4.639 0.162,5.391 0.157,1.558 1.188,11.709 0.954,13.234 -0.04,0.212 -0.374,1.237 -2.006,1.062 -1.817,-0.208 -2.182,-1.936 -2.182,-1.936 l -1.116,-12.236 c 0,0 -0.11,-0.817 -0.414,-1.375 -0.235,-0.456 -0.452,-1.154 -1.789,-1.568 -1.334,-0.43 -1.679,0.364 -1.679,0.364 0,0 -0.447,0.585 -0.406,2.206 0.034,0.948 0.662,5.603 1.054,6.615 0.393,1.005 1.303,2.234 1.303,2.234 0,0 1.065,0.913 1.148,1.714 0.112,0.352 0.264,1.072 -0.273,1.553 -0.419,0.368 -1.07,0.061 -1.07,0.061 0,0 -3.457,-0.939 -4.989,-4.747 -1.533,-3.811 -1.396,-7.414 -1.396,-7.414 0,0 0,-3.17 0.092,-3.808 0.084,-0.627 0.515,-2.483 1.866,-3.073 2.013,-0.825 4.501,0.37 4.501,0.37 l 1.586,0.908 c 0,0 0.432,0.429 0.432,-0.282 0,-0.146 -10e-4,-0.994 -0.003,-2.236 -5.95,-4.263 -14.95,-10.933 -16.331,-12.181 -1.816,-1.632 -13.406,-10.858 -14.942,-13.881 -0.447,-0.963 0.052,-2.12 0.408,-2.549 0.847,-0.977 1.954,-0.739 2.855,-0.613 1.339,0.237 8.147,8.11 10.593,10.597 4.241,4.133 12.095,10.453 17.408,13.996 -0.009,-4.945 -0.02,-10.738 -0.02,-10.738 l -0.307,-12.245 c 0,0 -0.181,-3.749 2.265,-4.123 2.976,-0.377 3.263,2.005 3.326,2.643 0.157,1.83 -1.386,5.139 -1.43,9.838 0.014,1.329 0.351,17.562 0.351,17.562 0,0 0,0.032 0,0.049 4.013,2.836 10.407,7.163 17.382,10.841 3.844,2.045 11.698,5.938 12.517,6.082 1.386,0.257 3.537,1.283 4.125,1.472 1.409,0.685 3.375,2.27 2.244,4.087 C 1.985,0.602 0,0 0,0"
             style="fill:#ac1e2d;fill-opacity:1;fill-rule:nonzero;stroke:none"
             id="path38" /></g><g
           id="g40"
           transform="translate(65.4331,169.9453)"><path
             d="m 0,0 c -1.61,0.114 -3.163,-1.899 -3.163,-1.899 0,0 -0.411,-0.606 -0.722,-2.2 -0.232,-1.272 -0.83,-13.104 -0.83,-13.104 0,0 -0.004,-0.776 0.59,-1.125 0.891,-0.257 1.276,0.033 1.276,0.033 0,0 0.87,0.513 1.83,1.272 0.505,0.399 0.499,1.121 0.499,1.121 0,0 1.888,13.316 1.425,14.74 C 0.924,-1.029 0.767,-0.118 0,0"
             style="fill:#ac1e2d;fill-opacity:1;fill-rule:nonzero;stroke:none"
             id="path42" /></g><g
           id="g44"
           transform="translate(68.0054,199.2241)"><path
             d="m 0,0 c 1.433,2.737 4.292,5.646 4.292,5.646 0,0 2.645,2.812 -0.566,5.335 -3.437,2.066 -5.516,-1.887 -5.516,-1.887 0,0 -3.112,-7.103 -5.901,-15.213 -2.113,-5.989 -4.224,-13.938 -4.766,-16.05 -2.314,-9.189 -4.154,-22.126 -4.154,-22.126 0,0 -0.073,-0.66 -0.257,-0.66 -0.188,0 -0.284,0.427 -0.284,0.427 l -3.981,23.954 c 0,0 -0.325,2.092 -1.96,2.339 -1.641,0.27 -2.479,-1.399 -2.479,-1.399 l -6.043,-17.788 c 0,0 -0.329,-1.249 1.142,-1.878 1.476,-0.642 2.404,0.825 2.404,0.825 0,0 2.988,7.679 3.356,8.309 0.652,0.513 0.794,-0.573 0.794,-0.573 l 5.206,-31.186 c 0,0 0.338,-1.289 1.883,-1.301 1.645,0 2.014,1.97 2.014,1.97 0,0 1.45,10.493 1.881,13.428 2.138,14.976 4.813,24.498 5.07,25.351 C -6.042,-16.298 -3.046,-5.559 0,0"
             style="fill:#ac1e2d;fill-opacity:1;fill-rule:nonzero;stroke:none"
             id="path46" /></g><g
           id="g48"
           transform="translate(97.4805,169.4443)"><path
             d="m 0,0 c 0.41,-0.178 0.822,-0.088 1.161,0.031 1.356,0.489 2.206,1.248 2.518,1.832 0.225,0.442 0.365,5.44 0.365,5.44 l 0.651,7.67 c 0,0 0.148,1.579 -0.895,1.732 -1.161,0.299 -2.594,-1.425 -2.594,-1.425 0,0 -0.334,-0.256 -0.577,-1.641 C 0.448,12.581 -0.581,1.18 -0.581,1.18 -0.581,1.18 -0.739,0.383 0,0"
             style="fill:#ac1e2d;fill-opacity:1;fill-rule:nonzero;stroke:none"
             id="path50" /></g><g
           id="g52"
           transform="translate(201.0947,134.7354)"><path
             d="m 0,0 c 2.629,1.865 -6.148,-27.158 10.895,-17.451 -0.586,-0.329 0.523,0.33 0.877,0.736 0.439,0.504 0.511,1.017 0.533,0.887 -4.049,21.598 16.456,46.821 21.109,53.072 1.694,2.278 -4.35,1.624 -6.57,0.177 C 21.022,33.629 18.234,27.771 4.875,12.462 -3.766,2.556 -7.788,-0.214 -17.349,-4.816 c -1.43,-0.689 -3.839,-0.154 -2.448,3.496 2.267,5.91 4.842,10.094 6.944,13.506 5.593,9.087 11.575,13.427 9.914,15.622 -1.184,1.561 -9.344,-1.826 -11.044,-3.087 -1.701,-1.268 -4.522,-7.122 -5.738,-9.945 C -27.49,-3.233 -46.636,-33.157 0,0 m 112.022,11.888 c 1.146,1.78 8.878,12.883 13.886,14.599 1.994,0.65 3.931,0.131 4.572,-0.567 1.489,-1.818 0.714,-4.054 0.034,-5.517 -2.473,-5.096 -7.619,-12.299 -14.02,-14.972 -2.049,-0.835 -3.223,-0.638 -4.865,0.225 -1.206,0.597 -1.958,2.494 0.393,6.232 m 27.59,-6.573 C 139.228,5.44 138.456,5.041 138.228,4.832 126.971,-5.74 122.569,-8.554 114.618,-9.419 c -3.14,-0.291 -6.189,0.534 -8.066,2.776 -0.91,1.085 -1.085,3.108 -0.74,4.87 0.284,1.472 0.781,2.5 2.296,4.265 1.69,-1.914 7.366,-2.208 10.063,-1.177 7.455,2.792 13.85,9.998 17.255,16.17 2.788,5.29 3.97,9.85 1.537,13.964 -2.528,4.41 -7.683,5.88 -11.563,5.59 -7.019,-0.59 -13.901,-5.737 -19.967,-13.523 C 96.94,12.337 91.887,1.462 94.236,-7.654 c 1.618,-6.027 6.932,-8.966 12.08,-9.703 12.447,-1.763 18.93,4.644 32.116,17.289 4.166,3.795 2.346,5.01 1.18,5.383 M 67.348,20.676 c 1.019,3.312 6.288,9.12 9.747,11.852 3.934,3.08 9.649,3.836 11.441,3.025 2.501,-1.148 2.011,-2.22 1.972,-2.941 0.021,-3.057 -4.744,-7.235 -7.109,-9.88 -0.842,-1.001 -1.052,-2.083 -0.631,-2.793 0.857,-1.333 4.101,-1.352 5.52,-1.219 3.305,0.267 6.721,4.436 9.019,7.321 2.218,2.882 2.777,7.048 1.732,9.509 -1.902,4.495 -6.877,5.632 -10.958,5.793 C 80.087,41.562 72.764,37.655 65.609,29.741 62,25.728 57.447,17.937 58.19,13.971 58.943,9.997 63.276,9.381 65.711,8.823 70.056,7.879 74.984,7.455 75.837,2.886 76.345,-0.16 74.646,-4.126 71.731,-7.178 c -4.782,-4.954 -12.737,-7.624 -16.926,-7.319 -2.437,0.151 -4.894,1.038 -5.79,3.228 -0.86,2.09 0.297,4.059 1.37,5.19 4.211,4.968 10.847,3.895 15.205,4.311 1.159,-0.008 2.561,1.511 1.013,3.584 -1.297,1.888 -7.098,1.251 -9.195,0.948 -4.942,-0.971 -11.472,-3.774 -14.422,-8.126 -1.517,-2.357 -1.843,-5.664 -0.238,-8.167 3.829,-6.387 12.73,-7.405 18.436,-6.846 7.78,0.852 16.404,4.21 22.289,13.221 2.81,4.27 4.26,10.955 2.286,14.945 -2.823,5.936 -9.94,5.841 -13.544,6.571 -2.467,0.352 -5.986,2.552 -4.867,6.314 m -8.279,82.111 c -7.146,15.122 -35.66,16.653 -63.692,3.414 -11.54,-5.449 -17.871,-9.267 -24.739,-16.795 0,0 -3.613,-4.779 0.451,-6.983 4.065,-2.209 6.163,-3.003 7.246,-1.652 5.835,7.31 11.667,14.209 23.146,19.633 22.974,10.847 46.11,10.078 51.681,-1.721 C 58.733,86.888 44.632,68.528 21.659,57.68 16.001,55.006 10.331,53.04 4.914,51.767 -1.687,49.86 -11.07,48.699 -21.439,48.855 c 5.424,10.161 11.251,19.362 15.406,25.912 5.513,8.7 6.283,10.038 5.858,11.327 -0.53,1.629 -1.743,1.894 -2.242,1.934 -1.605,0.126 -5.368,0.418 -25.391,-35.223 -0.661,-1.176 -1.319,-2.357 -1.975,-3.54 -13.133,1.085 -27.033,4.355 -38.453,10.867 l -0.197,0.066 c -0.318,-0.058 -1.161,-0.364 -1.255,-1.032 -0.089,-0.646 0.735,-1.094 0.968,-1.234 12.077,-7.521 24.475,-12.047 35.725,-14.521 -8.65,-15.924 -16.228,-31.152 -18.999,-37.709 -7.44,-17.021 -9.121,-27.574 3.279,-34.567 0.73,-0.411 1.415,-0.648 2.043,-0.695 0.783,-0.06 1.5,0.176 2.01,0.671 0.39,0.374 0.842,1.078 0.788,2.281 -0.818,17.664 5.594,35.012 11.793,51.795 l 0.902,2.436 c 1.768,4.798 3.904,9.623 6.208,14.333 10.872,-1.562 20.162,-1.209 26.273,0.063 6.718,1.482 13.747,3.862 20.743,7.167 28.026,13.238 44.162,38.477 37.024,53.601 M 91.46,78.292 C 91.703,76.362 66.972,54.456 52.919,31.286 43.765,16.188 34.027,0.796 31.475,-16.585 c -0.196,-1.333 -1.189,-1.355 -2.427,-0.296 -9.153,7.796 -6.263,16.233 3.404,30.238 9.694,14.421 57.853,74.202 59.008,64.935"
             style="fill:#008ea8;fill-opacity:1;fill-rule:nonzero;stroke:none"
             id="path54" /></g></g></g></g></svg>
